<svg version="1.2" xmlns="http://www.w3.org/2000/svg" viewBox="0 0 210 79" width="210" height="79"><defs><clipPath clipPathUnits="userSpaceOnUse" id="cp1"><path d="m-204-21h1920v5791h-1920z"/></clipPath><linearGradient id="P" gradientUnits="userSpaceOnUse"/><linearGradient id="g1" x1="24.7" y1="16.5" x2="54.6" y2="16.5" href="#P"><stop stop-color="#25bcec"/><stop offset=".3" stop-color="#1da9de"/><stop offset=".8" stop-color="#097aba"/><stop offset="1" stop-color="#0064aa"/></linearGradient><linearGradient id="g2" x1="-2078.9" y1="1179.4" x2="-2049.1" y2="1179.4" href="#P"><stop stop-color="#25bcec"/><stop offset=".3" stop-color="#1da9de"/><stop offset=".8" stop-color="#097aba"/><stop offset="1" stop-color="#0064aa"/></linearGradient></defs><style>tspan{white-space:pre}.a{font-size: 22px;line-height: 26px;fill: #25bcec;font-weight: 700;font-family: "Muli-Bold", "Muli"}.b{fill:#25bcec}.c{fill:url(#g1)}.d{fill:url(#g2)}.e{fill:#f6faf6}.f{fill:#0064aa}</style><g clip-path="url(#cp1)"><text style="transform:matrix(1,0,0,1,80.929,52.833)" ><tspan x="0" y="0" class="a">Medeskin AI
</tspan></text><path class="b" d="m78.8 41.9v12.4h-24.2v7.1c0 9.5-7.8 17.2-17.3 17.2h-12.4v-24.3h-7.2c-9.5 0-17.2-7.7-17.2-17.2v-12.4h24.4v-7.1c0-9.5 7.7-17.2 17.3-17.2h12.4v24.3h6.9c9.5 0 17.3 7.7 17.3 17.2z"/><path class="c" d="m24.9 24.7c-1-11.9 2.7-16.4 2.7-16.4 2.2 8.8 27 16.4 27 16.4z"/><path class="d" d="m54.6 54.3c1 11.9-2.7 16.4-2.7 16.4-2.3-8.8-27-16.4-27-16.4z"/><path class="e" d="m51.5 35.6c0-1.2 0.9-2.1 2.1-2.1 1.1 0 2.1 0.9 2.1 2.1v9.4c0 1.2-1 2.1-2.1 2.1-1.2 0-2.1-0.9-2.1-2.1z"/><path class="e" d="m24.1 35.6c0-1.2 0.9-2.1 2.1-2.1 1.1 0 2.1 0.9 2.1 2.1v9.4c0 1.2-1 2.1-2.1 2.1-1.2 0-2.1-0.9-2.1-2.1z"/><path class="f" d="m30.5 30.8c0-1.2 0.9-2.1 2.1-2.1 1.2 0 2.1 0.9 2.1 2.1v17.4c0 1.2-0.9 2.1-2.1 2.1-1.2 0-2.1-0.9-2.1-2.1z"/><path class="f" d="m37.5 34c0-1.2 0.9-2.1 2.1-2.1 1.1 0 2.1 0.9 2.1 2.1v12.6c0 1.2-1 2.1-2.1 2.1-1.2 0-2.1-0.9-2.1-2.1z"/><path class="f" d="m44.5 28c0-1.2 0.9-2.1 2.1-2.1 1.1 0 2.1 0.9 2.1 2.1v22.7c0 1.2-1 2.1-2.1 2.1-1.2 0-2.1-0.9-2.1-2.1z"/></g></svg>